HIERARCHY
ROOT root
{
	OFFSET	0	13.1	24.9
	CHANNELS 6  Xposition Yposition Zposition Xrotation Yrotation Zrotation
	JOINT spine_1
	{
		OFFSET	0	9.99999	0
		CHANNELS 3  Xrotation Yrotation Zrotation
		JOINT spine_2
		{
			OFFSET	0	112	-10
			CHANNELS 3  Xrotation Yrotation Zrotation
			JOINT spine_3
			{
				OFFSET	0	206.5	19.3
				CHANNELS 3  Xrotation Yrotation Zrotation
				JOINT spine_4
				{
					OFFSET	0	110.4	14.6
					CHANNELS 3  Xrotation Yrotation Zrotation
					JOINT neck_1
					{
						OFFSET	0	71.8	-50.3
						CHANNELS 3  Xrotation Yrotation Zrotation
						JOINT neck_2
						{
							OFFSET	0	86.2	-25.8
							CHANNELS 3  Xrotation Yrotation Zrotation
							JOINT head_ee
							{
								OFFSET	0	179.8	-8.7
								CHANNELS 3  Xrotation Yrotation Zrotation
								End Site
								{
									OFFSET	1	0	0
								}
							}
						}
					}
					JOINT left_clavicle
					{
						OFFSET	-43.2	22.4	-70.8
						CHANNELS 3  Xrotation Yrotation Zrotation
						JOINT left_shoulder
						{
							OFFSET	-93.9	-5.79999	48.7
							CHANNELS 3  Xrotation Yrotation Zrotation
							JOINT left_elbow
							{
								OFFSET	-291.4	-30.8	15.2
								CHANNELS 3  Xrotation Yrotation Zrotation
								JOINT left_lowarm_twist
								{
									OFFSET	-110.7	-3.89999	13.6
									CHANNELS 3  Xrotation Yrotation Zrotation
									JOINT left_hand
									{
										OFFSET	-110.7	-3.89999	13.6
										CHANNELS 3  Xrotation Yrotation Zrotation
										JOINT left_ee
										{
											OFFSET	-80.8	-5.10001	12.1
											CHANNELS 3  Xrotation Yrotation Zrotation
											End Site
											{
												OFFSET	1	0	0
											}
										}
									}
								}
							}
						}
					}
					JOINT right_clavicle
					{
						OFFSET	43.2	22.4	-70.8
						CHANNELS 3  Xrotation Yrotation Zrotation
						JOINT right_shoulder
						{
							OFFSET	93.9	-5.79999	48.7
							CHANNELS 3  Xrotation Yrotation Zrotation
							JOINT right_elbow
							{
								OFFSET	291.4	-30.8	15.2
								CHANNELS 3  Xrotation Yrotation Zrotation
								JOINT right_lowarm_twist
								{
									OFFSET	110.7	-3.89999	13.6
									CHANNELS 3  Xrotation Yrotation Zrotation
									JOINT right_hand
									{
										OFFSET	110.7	-3.89999	13.6
										CHANNELS 3  Xrotation Yrotation Zrotation
										JOINT right_ee
										{
											OFFSET	80.8	-5.10001	12.1
											CHANNELS 3  Xrotation Yrotation Zrotation
											End Site
											{
												OFFSET	1	0	0
											}
										}
									}
								}
							}
						}
					}
				}
			}
		}
	}
	JOINT left_hip
	{
		OFFSET	-82.8	-127.5	0.300001
		CHANNELS 3  Xrotation Yrotation Zrotation
		JOINT left_knee
		{
			OFFSET	-28.2	-396.7	2.2
			CHANNELS 3  Xrotation Yrotation Zrotation
			JOINT left_ankle
			{
				OFFSET	-11.7	-411.3	35.4
				CHANNELS 3  Xrotation Yrotation Zrotation
				JOINT left_toes
				{
					OFFSET	0	-60	-88.6
					CHANNELS 3  Xrotation Yrotation Zrotation
					JOINT left_foot_ee
					{
						OFFSET	-22.5	-16.5	-42.2
						CHANNELS 3  Xrotation Yrotation Zrotation
						End Site
						{
							OFFSET	1	0	0
						}
					}
				}
			}
		}
	}
	JOINT right_hip
	{
		OFFSET	82.8	-127.5	0.300001
		CHANNELS 3  Xrotation Yrotation Zrotation
		JOINT right_knee
		{
			OFFSET	28.2	-396.7	2.2
			CHANNELS 3  Xrotation Yrotation Zrotation
			JOINT right_ankle
			{
				OFFSET	11.7	-411.3	35.4
				CHANNELS 3  Xrotation Yrotation Zrotation
				JOINT right_toes
				{
					OFFSET	0	-60	-88.6
					CHANNELS 3  Xrotation Yrotation Zrotation
					JOINT right_foot_ee
					{
						OFFSET	22.5	-16.5	-42.2
						CHANNELS 3  Xrotation Yrotation Zrotation
						End Site
						{
							OFFSET	1	0	0
						}
					}
				}
			}
		}
	}
}
MOTION
Frames: 6
Frame Time: 0.02
2945.23 731.459 -717.513 1.25037 47.6268 3.99801 -1.4415 -0.286628 -2.08733 -1.43909 -0.153255 -2.10133 -1.43129 0.343963 -2.07866 -1.43732 0.0114374 -2.10688 2.90654 17.0864 6.80871 3.49323 24.1084 8.65977 -0.0 0.0 -0.0 2.44336 13.2035 5.58414 -19.8654 -37.6651 73.8594 0.378791 -10.6277 0.0352319 9.01124 0.229264 -1.12708 1.27022 -0.382257 8.36081 -0.0 0.0 -0.0 8.13786 20.6518 -15.2205 0.480905 30.677 -59.0832 1.23431 31.4421 -0.347452 -3.36213 0.130528 -0.409386 0.0821332 -9.0047 -4.26843 0.0 0.0 0.0 22.5437 -1.0051 -9.60753 -63.8334 -2.62783 8.93378 40.9638 10.1394 -4.96119 -5.96701 0.0 0.0 -0.0 0.0 -0.0 10.1565 -4.70079 -7.33565 -22.2413 -0.262283 -3.38163 21.3558 14.7414 3.11831 10.2912 -0.0 -0.0 0.0 0.0 0.0 
2927.04 734.216 -716.648 -1.3591 48.3684 5.51738 -0.9486 -0.386823 -2.1098 -0.946158 -0.251818 -2.13012 -0.934779 0.236369 -2.13189 -0.941106 -0.10321 -2.14247 3.29757 17.2288 5.55989 3.95007 25.3171 7.21855 -0.0 0.0 -0.0 2.4418 13.0078 5.57061 -20.0647 -37.6199 75.5175 0.294 -8.28644 0.0212972 8.1159 0.214455 -1.01367 1.13751 0.494906 7.82045 -0.0 0.0 -0.0 8.53166 19.2882 -16.1923 2.4535 29.5877 -57.6869 1.39789 34.6997 -0.43675 -4.17691 0.165765 -0.507408 0.352445 -4.62912 -4.25898 0.0 0.0 0.0 25.9265 2.22236 -8.87018 -63.1632 -2.55106 8.86444 41.0825 9.10839 -4.96392 -5.07806 0.0 0.0 -0.0 0.0 -0.0 9.39271 -2.24348 -6.8733 -17.7217 -0.3158 -2.69039 23.0921 10.4789 3.2534 8.78711 -0.0 -0.0 0.0 0.0 0.0 
2909.61 738.385 -716.945 -2.37068 48.0751 5.26601 -1.05509 -0.213676 -1.87896 -1.05314 -0.0937017 -1.88874 -1.04854 0.339562 -1.86034 -1.05337 0.04155 -1.89061 2.90487 17.27 4.76979 3.5814 26.1833 6.38041 -0.0 0.0 -0.0 2.11887 13.919 5.09346 -19.961 -38.8659 76.2811 0.274464 -7.7427 0.0185733 6.28239 0.178607 -0.782215 0.985114 2.42748 7.57445 -0.0 0.0 -0.0 8.68521 19.543 -16.5127 4.37286 28.0231 -56.5991 1.66875 39.5756 -0.600424 -3.62063 0.141556 -0.440538 0.706039 1.98276 -3.90185 0.0 0.0 0.0 29.2364 4.29381 -10.2579 -60.7935 -2.28628 8.61229 39.831 3.26824 -4.84531 -5.9163 0.0 0.0 -0.0 0.0 -0.0 8.42668 -3.02697 -5.36542 -14.9237 -0.321556 -2.26118 22.8114 8.87581 3.19228 5.49115 -0.0 -0.0 0.0 0.0 0.0 
2895.85 738.535 -722.109 -3.57184 48.0538 5.73239 -1.01448 -0.134164 -1.60868 -1.01304 -0.0315413 -1.61396 -1.01111 0.336374 -1.57884 -1.01458 0.0828374 -1.61214 2.99457 17.9559 4.23087 3.77404 27.83 5.78238 -0.0 0.0 -0.0 2.06295 12.1338 4.88549 -21.1353 -39.9494 77.3776 0.280091 -7.89948 0.019339 5.18825 0.153691 -0.64467 1.12956 2.62608 8.62144 -0.0 0.0 -0.0 9.02273 21.401 -17.1163 5.75967 27.0049 -55.6045 1.85815 42.6245 -0.724974 -3.43919 0.133801 -0.418677 0.923688 6.42614 -3.50932 0.0 0.0 0.0 32.9702 3.43793 -10.4831 -57.335 -1.9192 8.22534 40.0174 -1.553 -4.89063 -4.57061 0.0 0.0 -0.0 0.0 -0.0 6.6138 0.0268804 -4.16458 -8.90208 -0.262899 -1.33953 19.5458 12.9611 2.84743 3.97131 -0.0 -0.0 0.0 0.0 0.0 
2879.45 734.203 -732.021 -1.78899 48.0971 4.97005 -1.06325 -0.0276373 -1.46023 -1.06207 0.0653268 -1.45903 -1.06296 0.396751 -1.40558 -1.06568 0.169811 -1.45059 2.37629 17.865 4.66519 3.09437 27.48 6.36259 -0.0 0.0 -0.0 1.21207 12.1128 3.4589 -20.6762 -40.8345 78.6902 0.318252 -8.9593 0.0249334 4.31301 0.13187 -0.534995 1.06909 4.46895 8.94505 -0.0 0.0 -0.0 9.28494 21.2573 -17.7107 6.7451 26.3176 -55.1775 2.08786 45.9594 -0.885449 -2.66381 0.101441 -0.324988 1.16487 10.737 -3.29862 0.0 0.0 0.0 34.6069 3.28237 -13.043 -49.8576 -1.20979 7.3184 37.7733 -3.88443 -4.71901 -5.85231 0.0 0.0 -0.0 0.0 -0.0 2.75242 0.777672 -5.62016 -7.03155 -0.224998 -1.055 23.6339 12.4032 3.35651 3.42765 -0.0 -0.0 0.0 0.0 0.0 
2867.71 734.641 -742.845 -2.5206 49.2652 5.81505 -1.04101 -0.233272 -1.41299 -1.03991 -0.142896 -1.42496 -1.03544 0.185503 -1.42004 -1.03826 -0.0410705 -1.43152 1.4246 18.1615 5.33753 2.09772 27.7236 7.271 -0.0 0.0 -0.0 0.936771 12.5323 3.03744 -19.9491 -41.4305 78.9194 0.26391 -7.44839 0.0171782 3.30289 0.104607 -0.408845 0.766536 5.79005 7.45673 -0.0 0.0 -0.0 9.91559 20.804 -19.1538 8.59875 26.0532 -55.1201 2.15973 46.9273 -0.937538 -1.85024 0.0688555 -0.226229 0.997717 11.6629 -1.77022 0.0 0.0 0.0 34.0783 -1.80628 -11.1457 -40.5164 -0.499948 6.07042 38.7389 -0.752004 -4.7718 -6.54272 0.0 0.0 -0.0 0.0 -0.0 1.68736 1.98637 -5.86403 -7.83968 -0.242513 -1.17778 25.7743 10.6197 3.57916 2.9072 -0.0 -0.0 0.0 0.0 0.0 
